<svg width="145" height="145" viewBox="0 0 145 145" fill="none" xmlns="http://www.w3.org/2000/svg">
<rect y="-0.000488281" width="144.58" height="144.58" rx="16.0644" fill="black"/>
<path d="M122.498 59.5771C122.498 87.601 72.0927 135.186 72.0927 135.186C72.0927 135.186 21.687 87.601 21.687 59.5771C21.687 31.5533 44.2544 8.83545 72.0927 8.83545C99.9309 8.83545 122.498 31.5533 122.498 59.5771Z" fill="white"/>
<path d="M122.498 59.5771C122.498 87.601 72.0927 135.186 72.0927 135.186C72.0927 135.186 21.687 87.601 21.687 59.5771C21.687 31.5533 44.2544 8.83545 72.0927 8.83545C99.9309 8.83545 122.498 31.5533 122.498 59.5771Z" fill="white"/>
<path d="M113.761 59.4125C113.761 83.2626 72.0928 123.76 72.0928 123.76C72.0928 123.76 30.4241 83.2626 30.4241 59.4125C30.4241 35.5624 49.0798 16.228 72.0928 16.228C95.1057 16.228 113.761 35.5624 113.761 59.4125Z" fill="black"/>
<path d="M113.761 59.4125C113.761 83.2626 72.0928 123.76 72.0928 123.76C72.0928 123.76 30.4241 83.2626 30.4241 59.4125C30.4241 35.5624 49.0798 16.228 72.0928 16.228C95.1057 16.228 113.761 35.5624 113.761 59.4125Z" fill="black"/>
<circle cx="72.0928" cy="57.8965" r="22.8506" fill="white"/>
<path d="M87.5503 57.5612C87.5503 65.9126 80.7801 72.6828 72.4286 72.6828C64.0771 72.6828 57.3069 65.9126 57.3069 57.5612C57.3069 49.2097 64.0771 42.4395 72.4286 42.4395C80.7801 42.4395 87.5503 49.2097 87.5503 57.5612Z" fill="black"/>
<path d="M52.6563 93.5347V85.6115H54.04L57.6968 90.6575H57.7847V85.6115H59.3715V93.5347H57.9988L54.331 88.4667H54.2431V93.5347H52.6563ZM63.7474 93.661C61.886 93.661 60.7659 92.4804 60.7659 90.5147V90.5038C60.7659 88.5545 61.9025 87.3576 63.7474 87.3576C65.5923 87.3576 66.7289 88.549 66.7289 90.5038V90.5147C66.7289 92.4859 65.6088 93.661 63.7474 93.661ZM63.7474 92.4036C64.5985 92.4036 65.0871 91.7062 65.0871 90.5147V90.5038C65.0871 89.3232 64.593 88.6149 63.7474 88.6149C62.8963 88.6149 62.4076 89.3232 62.4076 90.5038V90.5147C62.4076 91.7062 62.8908 92.4036 63.7474 92.4036ZM68.8535 93.5347L67.2393 87.4893H68.859L69.7595 91.8655H69.8584L70.9181 87.4893H72.4445L73.5097 91.8655H73.6085L74.509 87.4893H76.0959L74.4871 93.5347H72.7849L71.7032 89.3178H71.6044L70.5337 93.5347H68.8535ZM80.7682 93.7378C78.4127 93.7378 76.9686 92.151 76.9686 89.5703V89.5593C76.9686 87.0171 78.4237 85.4083 80.7298 85.4083C82.6022 85.4083 83.9694 86.4845 84.2055 88.0659L84.2164 88.1208H82.5692L82.5582 88.0659C82.3331 87.2807 81.6577 86.814 80.7298 86.814C79.4505 86.814 78.6598 87.8572 78.6598 89.5429V89.5539C78.6598 91.2725 79.4889 92.3322 80.7957 92.3322C81.8829 92.3322 82.6296 91.6678 82.6626 90.6685L82.668 90.5202H80.9549V89.3123H84.2823V90.3171C84.2823 92.42 82.9316 93.7378 80.7682 93.7378ZM89.2622 93.7378C86.9067 93.7378 85.4461 92.1345 85.4461 89.5758V89.5648C85.4461 87.0007 86.9286 85.4083 89.2622 85.4083C91.5958 85.4083 93.0728 87.0061 93.0728 89.5648V89.5758C93.0728 92.1345 91.6013 93.7378 89.2622 93.7378ZM89.2622 92.3322C90.5525 92.3322 91.3816 91.2505 91.3816 89.5758V89.5648C91.3816 87.8847 90.547 86.814 89.2622 86.814C87.9719 86.814 87.1373 87.8847 87.1373 89.5648V89.5758C87.1373 91.2505 87.9554 92.3322 89.2622 92.3322Z" fill="white"/>
</svg>
