<svg width="15" height="14" viewBox="0 0 15 14" fill="none" xmlns="http://www.w3.org/2000/svg">
<path fill-rule="evenodd" clip-rule="evenodd" d="M6.18378 9.75135C6.44649 9.75135 6.65946 9.96432 6.65946 10.227V12.0897C9.27448 10.5622 10.8478 9.48173 11.7967 8.53832C12.3473 7.99084 12.6502 7.52395 12.8261 7.07876C13.003 6.63112 13.0811 6.13097 13.0811 5.47027C13.0811 3.10589 11.1644 1.18919 8.8 1.18919H5.47027C3.10589 1.18919 1.18919 3.10589 1.18919 5.47027C1.18919 7.83465 3.10589 9.75135 5.47027 9.75135H6.18378ZM6.65946 13.4643C12.9994 9.81577 14.2703 8.32138 14.2703 5.47027C14.2703 2.44912 11.8211 0 8.8 0H5.47027C2.44912 0 0 2.44912 0 5.47027C0 8.49142 2.44912 10.9405 5.47027 10.9405V13.3271C5.47027 13.691 5.86219 13.92 6.17836 13.7398C6.34188 13.6466 6.50223 13.5548 6.65946 13.4643Z" fill="#687684"/>
</svg>
