<svg width="15" height="14" viewBox="0 0 15 14" fill="none" xmlns="http://www.w3.org/2000/svg">
<path fill-rule="evenodd" clip-rule="evenodd" d="M3.68634 0.111284C4.55051 -0.10475 5.46275 -0.00373435 6.25512 0.392433L6.58167 0.555701C6.97597 0.75284 7.32254 1.02229 7.60583 1.34533C7.6455 1.39057 7.71663 1.39057 7.75629 1.34533C8.03958 1.02229 8.38616 0.75284 8.78046 0.555701L9.10701 0.392433C9.89938 -0.00373435 10.8116 -0.10475 11.6758 0.111284C12.5063 0.318894 13.2311 0.803786 13.7342 1.47456L13.9175 1.71892C14.5028 2.49926 14.8162 3.44379 14.8162 4.41075V4.68367C14.8162 5.11636 14.7631 5.54761 14.6581 5.96785L14.5942 6.22347C14.3537 7.18513 13.923 8.09099 13.3257 8.88744L12.9533 9.38388C12.654 9.78301 12.3264 10.1607 11.9731 10.514L11.5955 10.8916C10.6894 11.7977 9.64166 12.5532 8.49196 13.128C7.98282 13.3826 7.3793 13.3826 6.87017 13.128C5.72047 12.5532 4.67276 11.7977 3.76667 10.8916L3.38904 10.514C3.0357 10.1607 2.70817 9.78301 2.40881 9.38388L2.03646 8.88744C1.4391 8.09099 1.00839 7.18513 0.767963 6.22347L0.704056 5.96785C0.598991 5.54761 0.545929 5.11636 0.545929 4.68367V4.41075C0.545929 3.44379 0.85934 2.49926 1.44462 1.71892L1.6279 1.47456C2.13101 0.803786 2.85586 0.318894 3.68634 0.111284ZM5.70278 1.35477C5.16949 1.08813 4.56268 1.0224 3.98897 1.16583C3.43601 1.30406 2.93864 1.63065 2.58614 2.10064L2.40286 2.345C1.9587 2.93719 1.71562 3.66204 1.71562 4.41075V4.68367C1.71562 5.03317 1.7585 5.38117 1.84315 5.71977L1.90706 5.97539C2.11428 6.80423 2.48464 7.58133 2.9947 8.26137L3.36704 8.7578C3.63534 9.11552 3.92847 9.45344 4.24413 9.76909L4.62177 10.1467C5.44227 10.9672 6.38822 11.6486 7.42251 12.1657C7.58661 12.2477 7.77552 12.2477 7.93962 12.1657C8.9739 11.6486 9.91986 10.9672 10.7404 10.1467L11.118 9.76909C11.4337 9.45344 11.7268 9.11552 11.9951 8.7578L12.3674 8.26137C12.8775 7.58133 13.2479 6.80423 13.4551 5.97539L13.519 5.71977C13.6036 5.38117 13.6465 5.03317 13.6465 4.68367V4.41075C13.6465 3.66204 13.4034 2.93719 12.9593 2.345L12.776 2.10064C12.4235 1.63065 11.9261 1.30406 11.3732 1.16583C10.7995 1.0224 10.1926 1.08813 9.65934 1.35477L9.33279 1.51804C8.9105 1.72917 8.56032 2.07567 8.34204 2.51221C7.95219 3.29188 7.40743 3.28687 7.02008 2.51221C6.80181 2.07567 6.45163 1.72917 6.02934 1.51804L5.70278 1.35477Z" fill="#687684"/>
</svg>
