<svg width="14" height="14" viewBox="0 0 14 14" fill="none" xmlns="http://www.w3.org/2000/svg">
<path d="M11.1602 7.48724C10.899 7.69957 10.5152 7.66051 10.3022 7.39991C10.0839 7.13291 10.1298 6.73824 10.4036 6.52853L11.4915 5.69525C12.5385 4.7735 12.6401 3.17752 11.7183 2.13053C10.7966 1.08353 9.20058 0.982003 8.15359 1.90375L6.04635 3.75892C4.99936 4.68067 4.89783 6.27665 5.81958 7.32364C6.15575 7.70549 6.35827 7.88333 6.66909 7.95895C6.95875 8.02943 7.19677 8.26522 7.16781 8.56193C7.16406 8.6003 7.15593 8.63812 7.14358 8.67465L7.13949 8.68676C7.04792 8.95758 6.78063 9.13693 6.50017 9.08152C5.87958 8.95891 5.45628 8.70036 4.9321 8.10496C3.57884 6.56783 3.72789 4.22469 5.26503 2.87143L7.37227 1.01627C8.9094 -0.336996 11.2525 -0.187932 12.6058 1.3492C13.9591 2.88634 13.81 5.22947 12.2729 6.58273L11.1602 7.48724Z" fill="#687684"/>
<path d="M2.37035 6.59302C2.63153 6.38067 3.01529 6.41971 3.22837 6.6803C3.44668 6.94728 3.40076 7.34196 3.12697 7.55168L2.0391 8.38503C0.992162 9.30685 0.890733 10.9028 1.81255 11.9498C2.73437 12.9967 4.33035 13.0981 5.37728 12.1763L7.4844 10.321C8.53134 9.39921 8.63277 7.80322 7.71095 6.75628C7.37475 6.37445 7.17222 6.19662 6.8614 6.12102C6.57173 6.05056 6.3337 5.81479 6.36265 5.51808C6.36639 5.47971 6.37452 5.44189 6.38686 5.40536L6.39096 5.39325C6.4825 5.12242 6.74978 4.94306 7.03025 4.99845C7.65085 5.12102 8.07417 5.37954 8.59838 5.9749C9.95174 7.51196 9.80283 9.8551 8.26578 11.2085L6.15866 13.0638C4.62161 14.4171 2.27847 14.2682 0.925114 12.7311C-0.428245 11.1941 -0.279333 8.85095 1.25772 7.4976L2.37035 6.59302Z" fill="#687684"/>
</svg>
