<svg width="156" height="196" viewBox="0 0 156 196" fill="none" xmlns="http://www.w3.org/2000/svg">
<path d="M155.754 78.8012C155.754 121.982 78.0855 195.304 78.0855 195.304C78.0855 195.304 0.41687 121.982 0.41687 78.8012C0.41687 35.62 35.1903 0.614746 78.0855 0.614746C120.981 0.614746 155.754 35.62 155.754 78.8012Z" fill="white"/>
<path d="M155.754 78.8012C155.754 121.982 78.0855 195.304 78.0855 195.304C78.0855 195.304 0.41687 121.982 0.41687 78.8012C0.41687 35.62 35.1903 0.614746 78.0855 0.614746C120.981 0.614746 155.754 35.62 155.754 78.8012Z" fill="white"/>
<path d="M142.292 78.5475C142.292 115.297 78.0855 177.699 78.0855 177.699C78.0855 177.699 13.8794 115.297 13.8794 78.5475C13.8794 41.7976 42.6255 12.0059 78.0855 12.0059C113.546 12.0059 142.292 41.7976 142.292 78.5475Z" fill="black"/>
<path d="M142.292 78.5475C142.292 115.297 78.0855 177.699 78.0855 177.699C78.0855 177.699 13.8794 115.297 13.8794 78.5475C13.8794 41.7976 42.6255 12.0059 78.0855 12.0059C113.546 12.0059 142.292 41.7976 142.292 78.5475Z" fill="black"/>
<circle cx="78.0855" cy="76.2122" r="35.2098" fill="white"/>
<path d="M101.904 75.6946C101.904 88.5632 91.4719 98.9953 78.6033 98.9953C65.7348 98.9953 55.3027 88.5632 55.3027 75.6946C55.3027 62.8261 65.7348 52.394 78.6033 52.394C91.4719 52.394 101.904 62.8261 101.904 75.6946Z" fill="black"/>
<path d="M48.1365 132.717V120.508H50.2686L55.9033 128.283H56.0387V120.508H58.4838V132.717H56.3687L50.717 124.908H50.5816V132.717H48.1365ZM65.2265 132.911C62.3583 132.911 60.6324 131.092 60.6324 128.063V128.047C60.6324 125.043 62.3837 123.199 65.2265 123.199C68.0692 123.199 69.8206 125.035 69.8206 128.047V128.063C69.8206 131.101 68.0946 132.911 65.2265 132.911ZM65.2265 130.974C66.5379 130.974 67.2909 129.899 67.2909 128.063V128.047C67.2909 126.228 66.5294 125.136 65.2265 125.136C63.9151 125.136 63.1621 126.228 63.1621 128.047V128.063C63.1621 129.899 63.9066 130.974 65.2265 130.974ZM73.0944 132.717L70.607 123.402H73.1029L74.4904 130.145H74.6427L76.2756 123.402H78.6276L80.269 130.145H80.4213L81.8088 123.402H84.2539L81.775 132.717H79.1522L77.4854 126.219H77.3332L75.6833 132.717H73.0944ZM91.4534 133.03C87.8239 133.03 85.5987 130.585 85.5987 126.608V126.591C85.5987 122.674 87.8408 120.195 91.3942 120.195C94.2793 120.195 96.386 121.853 96.7498 124.29L96.7667 124.375H94.2285L94.2116 124.29C93.8647 123.08 92.8241 122.361 91.3942 122.361C89.4229 122.361 88.2046 123.969 88.2046 126.566V126.583C88.2046 129.231 89.4821 130.864 91.4957 130.864C93.1709 130.864 94.3216 129.84 94.3723 128.3L94.3808 128.072H91.7411V126.211H96.8682V127.759C96.8682 130.999 94.7869 133.03 91.4534 133.03ZM104.542 133.03C100.912 133.03 98.6614 130.559 98.6614 126.617V126.6C98.6614 122.649 100.946 120.195 104.542 120.195C108.137 120.195 110.413 122.657 110.413 126.6V126.617C110.413 130.559 108.146 133.03 104.542 133.03ZM104.542 130.864C106.53 130.864 107.807 129.197 107.807 126.617V126.6C107.807 124.011 106.521 122.361 104.542 122.361C102.553 122.361 101.267 124.011 101.267 126.6V126.617C101.267 129.197 102.528 130.864 104.542 130.864Z" fill="white"/>
</svg>
