<svg width="16" height="15" viewBox="0 0 16 15" fill="none" xmlns="http://www.w3.org/2000/svg">
<path fill-rule="evenodd" clip-rule="evenodd" d="M7.52308 0.139322C7.70884 -0.0464406 8.01002 -0.0464408 8.19578 0.139322L11.6096 3.55314C11.8418 3.78534 11.8418 4.16182 11.6096 4.39402C11.3774 4.62623 11.0009 4.62623 10.7687 4.39402L8.45403 2.07933V9.20602C8.45403 9.5344 8.18782 9.80061 7.85943 9.80061C7.53105 9.80061 7.26484 9.5344 7.26484 9.20602V2.07933L4.95014 4.39402C4.71794 4.62623 4.34146 4.62623 4.10926 4.39402C3.87706 4.16182 3.87706 3.78534 4.10926 3.55314L7.52308 0.139322ZM1.19997 7.66007C1.52836 7.66007 1.79457 7.92628 1.79457 8.25466V12.0601C1.79457 12.5198 2.16726 12.8925 2.627 12.8925H13.0919C13.5516 12.8925 13.9243 12.5198 13.9243 12.0601V8.25466C13.9243 7.92628 14.1905 7.66007 14.5189 7.66007C14.8473 7.66007 15.1135 7.92628 15.1135 8.25466V12.0601C15.1135 13.1766 14.2084 14.0817 13.0919 14.0817H2.627C1.51049 14.0817 0.605377 13.1766 0.605377 12.0601V8.25466C0.605377 7.92628 0.871586 7.66007 1.19997 7.66007Z" fill="#687684"/>
</svg>
