<svg width="72" height="107" viewBox="0 0 72 107" fill="none" xmlns="http://www.w3.org/2000/svg">
<ellipse opacity="0.15" cx="36" cy="87.6627" rx="33.4286" ry="19.3373" fill="#252B5C"/>
<path d="M72 36.0964C72 51.4286 50.7033 75.2062 40.8701 85.3677C38.1773 88.1504 33.8227 88.1504 31.1299 85.3677C21.2967 75.2062 0 51.4286 0 36.0964C0 26.523 3.79285 17.3418 10.5442 10.5724C17.2955 3.803 26.4522 0 36 0C45.5478 0 54.7045 3.803 61.4559 10.5724C68.2072 17.3418 72 26.523 72 36.0964Z" fill="white"/>
<path opacity="0.25" d="M36 65.0392C43.8629 65.0392 51.4038 61.9446 56.9637 56.4361C62.5236 50.9277 65.6471 43.4567 65.6471 35.6666C65.6471 27.8765 62.5236 20.4055 56.9637 14.8971C51.4038 9.38867 43.8629 6.29407 36 6.29407C28.1371 6.29407 20.5963 9.38867 15.0364 14.8971C9.47649 20.4055 6.35297 27.8765 6.35297 35.6666C6.35297 43.4567 9.47649 50.9277 15.0364 56.4361C20.5963 61.9446 28.1371 65.0392 36 65.0392V65.0392Z" fill="white"/>
<circle cx="36" cy="35" r="27" fill="#D9D9D9"/>
</svg>
